<svg viewbox="0 0 500 500" width="500" height="500" xmlns="http://www.w3.org/2000/svg">
<rect x="0" y="0" width="100%" height="100%" fill="white"/>
<path fill="lightblue" stroke="black" stroke-width="1.5" stroke-linejoin="round" d="M250 250L264.39 254.23M264.39 254.23Q283.11 251.38 289.67 253.31A8 8 0 1 1 285.17 268.66Q278.6 266.74 264.39 254.23M250 250L262.62 258.11M262.62 258.11Q281.38 260.65 287.13 264.35A8 8 0 1 1 278.48 277.82Q272.73 274.11 262.62 258.11M250 250L259.82 261.34M259.82 261.34Q277.1 269.06 281.59 274.24A8 8 0 1 1 269.49 284.71Q265.01 279.54 259.82 261.34M250 250L256.23 263.64M256.23 263.64Q270.64 275.93 273.48 282.15A8 8 0 1 1 258.92 288.8Q256.08 282.57 256.23 263.64M250 250L252.13 264.85M252.13 264.85Q262.49 280.69 263.47 287.46A8 8 0 1 1 247.63 289.74Q246.66 282.97 252.13 264.85M250 250L247.87 264.85M247.87 264.85Q253.34 282.97 252.37 289.74A8 8 0 1 1 236.53 287.46Q237.51 280.69 247.87 264.85M250 250L243.77 263.64M243.77 263.64Q243.92 282.57 241.08 288.8A8 8 0 1 1 226.52 282.15Q229.36 275.93 243.77 263.64M250 250L240.18 261.34M240.18 261.34Q234.99 279.54 230.51 284.71A8 8 0 1 1 218.41 274.24Q222.9 269.06 240.18 261.34M250 250L237.38 258.11M237.38 258.11Q227.27 274.11 221.52 277.82A8 8 0 1 1 212.87 264.35Q218.62 260.65 237.38 258.11M250 250L235.61 254.23M235.61 254.23Q221.4 266.74 214.83 268.66A8 8 0 1 1 210.33 253.31Q216.89 251.38 235.61 254.23M250 250L235 250M235 250Q217.84 258 211 258A8 8 0 1 1 211 242Q217.84 242 235 250M250 250L235.61 245.77M235.61 245.77Q216.89 248.62 210.33 246.69A8 8 0 1 1 214.83 231.34Q221.4 233.26 235.61 245.77M250 250L237.38 241.89M237.38 241.89Q218.62 239.35 212.87 235.65A8 8 0 1 1 221.52 222.18Q227.27 225.89 237.38 241.89M250 250L240.18 238.66M240.18 238.66Q222.9 230.94 218.41 225.76A8 8 0 1 1 230.51 215.29Q234.99 220.46 240.18 238.66M250 250L243.77 236.36M243.77 236.36Q229.36 224.07 226.52 217.85A8 8 0 1 1 241.08 211.2Q243.92 217.43 243.77 236.36M250 250L247.87 235.15M247.87 235.15Q237.51 219.31 236.53 212.54A8 8 0 1 1 252.37 210.26Q253.34 217.03 247.87 235.15M250 250L252.13 235.15M252.13 235.15Q246.66 217.03 247.63 210.26A8 8 0 1 1 263.47 212.54Q262.49 219.31 252.13 235.15M250 250L256.23 236.36M256.23 236.36Q256.08 217.43 258.92 211.2A8 8 0 1 1 273.48 217.85Q270.64 224.07 256.23 236.36M250 250L259.82 238.66M259.82 238.66Q265.01 220.46 269.49 215.29A8 8 0 1 1 281.59 225.76Q277.1 230.94 259.82 238.66M250 250L262.62 241.89M262.62 241.89Q272.73 225.89 278.48 222.18A8 8 0 1 1 287.13 235.65Q281.38 239.35 262.62 241.89M250 250L264.39 245.77M264.39 245.77Q278.6 233.26 285.17 231.34A8 8 0 1 1 289.67 246.69Q283.11 248.62 264.39 245.77M250 250L265 250M265 250Q282.16 242 289 242A8 8 0 1 1 289 258Q282.16 258 265 250M250 250L278.78 258.45M278.78 258.45Q316.21 252.77 329.35 256.62A16 16 0 1 1 320.33 287.33Q307.2 283.47 278.78 258.45M250 250L275.24 266.22M275.24 266.22Q312.75 271.31 324.27 278.71A16 16 0 1 1 306.97 305.63Q295.45 298.23 275.24 266.22M250 250L269.65 272.67M269.65 272.67Q304.21 288.13 313.17 298.47A16 16 0 1 1 288.99 319.43Q280.02 309.08 269.65 272.67M250 250L262.46 277.29M262.46 277.29Q291.27 301.85 296.96 314.3A16 16 0 1 1 267.85 327.6Q262.16 315.15 262.46 277.29M250 250L254.27 279.69M254.27 279.69Q274.99 311.38 276.94 324.93A16 16 0 1 1 245.26 329.48Q243.32 315.93 254.27 279.69M250 250L245.73 279.69M245.73 279.69Q256.68 315.93 254.74 329.48A16 16 0 1 1 223.06 324.93Q225.01 311.38 245.73 279.69M250 250L237.54 277.29M237.54 277.29Q237.84 315.15 232.15 327.6A16 16 0 1 1 203.04 314.3Q208.73 301.85 237.54 277.29M250 250L230.35 272.67M230.35 272.67Q219.98 309.08 211.01 319.43A16 16 0 1 1 186.83 298.47Q195.79 288.13 230.35 272.67M250 250L224.76 266.22M224.76 266.22Q204.55 298.23 193.03 305.63A16 16 0 1 1 175.73 278.71Q187.25 271.31 224.76 266.22M250 250L221.22 258.45M221.22 258.45Q192.8 283.47 179.67 287.33A16 16 0 1 1 170.65 256.62Q183.79 252.77 221.22 258.45M250 250L220 250M220 250Q185.69 266 172 266A16 16 0 1 1 172 234Q185.69 234 220 250M250 250L221.22 241.55M221.22 241.55Q183.79 247.23 170.65 243.38A16 16 0 1 1 179.67 212.67Q192.8 216.53 221.22 241.55M250 250L224.76 233.78M224.76 233.78Q187.25 228.69 175.73 221.29A16 16 0 1 1 193.03 194.37Q204.55 201.77 224.76 233.78M250 250L230.35 227.33M230.35 227.33Q195.79 211.87 186.83 201.53A16 16 0 1 1 211.01 180.57Q219.98 190.92 230.35 227.33M250 250L237.54 222.71M237.54 222.71Q208.73 198.15 203.04 185.7A16 16 0 1 1 232.15 172.4Q237.84 184.85 237.54 222.71M250 250L245.73 220.31M245.73 220.31Q225.01 188.62 223.06 175.07A16 16 0 1 1 254.74 170.52Q256.68 184.07 245.73 220.31M250 250L254.27 220.31M254.27 220.31Q243.32 184.07 245.26 170.52A16 16 0 1 1 276.94 175.07Q274.99 188.62 254.27 220.31M250 250L262.46 222.71M262.46 222.71Q262.16 184.85 267.85 172.4A16 16 0 1 1 296.96 185.7Q291.27 198.15 262.46 222.71M250 250L269.65 227.33M269.65 227.33Q280.02 190.92 288.99 180.57A16 16 0 1 1 313.17 201.53Q304.21 211.87 269.65 227.33M250 250L275.24 233.78M275.24 233.78Q295.45 201.77 306.97 194.37A16 16 0 1 1 324.27 221.29Q312.75 228.69 275.24 233.78M250 250L278.78 241.55M278.78 241.55Q307.2 216.53 320.33 212.67A16 16 0 1 1 329.35 243.38Q316.21 247.23 278.78 241.55M250 250L280 250M280 250Q314.31 234 328 234A16 16 0 1 1 328 266Q314.31 266 280 250M250 250L293.18 262.68M293.18 262.68Q349.32 254.15 369.02 259.93A24 24 0 1 1 355.5 305.99Q335.8 300.21 293.18 262.68M250 250L287.86 274.33M287.86 274.33Q344.13 281.96 361.4 293.06A24 24 0 1 1 335.45 333.45Q318.18 322.34 287.86 274.33M250 250L279.47 284.01M279.47 284.01Q331.31 307.19 344.76 322.71A24 24 0 1 1 308.48 354.14Q295.04 338.62 279.47 284.01M250 250L268.69 290.93M268.69 290.93Q311.91 327.78 320.43 346.46A24 24 0 1 1 276.77 366.4Q268.24 347.72 268.69 290.93M250 250L256.4 294.54M256.4 294.54Q287.48 342.07 290.41 362.39A24 24 0 1 1 242.9 369.22Q239.97 348.9 256.4 294.54M250 250L243.6 294.54M243.6 294.54Q260.03 348.9 257.1 369.22A24 24 0 1 1 209.59 362.39Q212.52 342.07 243.6 294.54M250 250L231.31 290.93M231.31 290.93Q231.76 347.72 223.23 366.4A24 24 0 1 1 179.57 346.46Q188.09 327.78 231.31 290.93M250 250L220.53 284.01M220.53 284.01Q204.96 338.62 191.52 354.14A24 24 0 1 1 155.24 322.71Q168.69 307.19 220.53 284.01M250 250L212.14 274.33M212.14 274.33Q181.82 322.34 164.55 333.45A24 24 0 1 1 138.6 293.06Q155.87 281.96 212.14 274.33M250 250L206.82 262.68M206.82 262.68Q164.2 300.21 144.5 305.99A24 24 0 1 1 130.98 259.93Q150.68 254.15 206.82 262.68M250 250L205 250M205 250Q153.53 274 133 274A24 24 0 1 1 133 226Q153.53 226 205 250M250 250L206.82 237.32M206.82 237.32Q150.68 245.85 130.98 240.07A24 24 0 1 1 144.5 194.01Q164.2 199.79 206.82 237.32M250 250L212.14 225.67M212.14 225.67Q155.87 218.04 138.6 206.94A24 24 0 1 1 164.55 166.55Q181.82 177.66 212.14 225.67M250 250L220.53 215.99M220.53 215.99Q168.69 192.81 155.24 177.29A24 24 0 1 1 191.52 145.86Q204.96 161.38 220.53 215.99M250 250L231.31 209.07M231.31 209.07Q188.09 172.22 179.57 153.54A24 24 0 1 1 223.23 133.6Q231.76 152.28 231.31 209.07M250 250L243.6 205.46M243.6 205.46Q212.52 157.93 209.59 137.61A24 24 0 1 1 257.1 130.78Q260.03 151.1 243.6 205.46M250 250L256.4 205.46M256.4 205.46Q239.97 151.1 242.9 130.78A24 24 0 1 1 290.41 137.61Q287.48 157.93 256.4 205.46M250 250L268.69 209.07M268.69 209.07Q268.24 152.28 276.77 133.6A24 24 0 1 1 320.43 153.54Q311.91 172.22 268.69 209.07M250 250L279.47 215.99M279.47 215.99Q295.04 161.38 308.48 145.86A24 24 0 1 1 344.76 177.29Q331.31 192.81 279.47 215.99M250 250L287.86 225.67M287.86 225.67Q318.18 177.66 335.45 166.55A24 24 0 1 1 361.4 206.94Q344.13 218.04 287.86 225.67M250 250L293.18 237.32M293.18 237.32Q335.8 199.79 355.5 194.01A24 24 0 1 1 369.02 240.07Q349.32 245.85 293.18 237.32M250 250L295 250M295 250Q346.47 226 367 226A24 24 0 1 1 367 274Q346.47 274 295 250M250 250L307.57 266.9M307.57 266.9Q382.43 255.53 408.7 263.25A32 32 0 1 1 390.67 324.65Q364.4 316.94 307.57 266.9M250 250L300.48 282.44M300.48 282.44Q375.51 292.62 398.54 307.42A32 32 0 1 1 363.94 361.26Q340.91 346.46 300.48 282.44M250 250L289.29 295.34M289.29 295.34Q358.41 326.25 376.34 346.94A32 32 0 1 1 327.97 388.85Q310.05 368.16 289.29 295.34M250 250L274.92 304.58M274.92 304.58Q332.54 353.71 343.91 378.61A32 32 0 1 1 285.7 405.2Q274.32 380.29 274.92 304.58M250 250L258.54 309.39M258.54 309.39Q299.98 372.76 303.88 399.86A32 32 0 1 1 240.53 408.97Q236.63 381.87 258.54 309.39M250 250L241.46 309.39M241.46 309.39Q263.37 381.87 259.47 408.97A32 32 0 1 1 196.12 399.86Q200.02 372.76 241.46 309.39M250 250L225.08 304.58M225.08 304.58Q225.68 380.29 214.3 405.2A32 32 0 1 1 156.09 378.61Q167.46 353.71 225.08 304.58M250 250L210.71 295.34M210.71 295.34Q189.95 368.16 172.03 388.85A32 32 0 1 1 123.66 346.94Q141.59 326.25 210.71 295.34M250 250L199.52 282.44M199.52 282.44Q159.09 346.46 136.06 361.26A32 32 0 1 1 101.46 307.42Q124.49 292.62 199.52 282.44M250 250L192.43 266.9M192.43 266.9Q135.6 316.94 109.33 324.65A32 32 0 1 1 91.3 263.25Q117.57 255.53 192.43 266.9M250 250L190 250M190 250Q121.38 282 94 282A32 32 0 1 1 94 218Q121.38 218 190 250M250 250L192.43 233.1M192.43 233.1Q117.57 244.47 91.3 236.75A32 32 0 1 1 109.33 175.35Q135.6 183.06 192.43 233.1M250 250L199.52 217.56M199.52 217.56Q124.49 207.38 101.46 192.58A32 32 0 1 1 136.06 138.74Q159.09 153.54 199.52 217.56M250 250L210.71 204.66M210.71 204.66Q141.59 173.75 123.66 153.06A32 32 0 1 1 172.03 111.15Q189.95 131.84 210.71 204.66M250 250L225.08 195.42M225.08 195.42Q167.46 146.29 156.09 121.39A32 32 0 1 1 214.3 94.8Q225.68 119.71 225.08 195.42M250 250L241.46 190.61M241.46 190.61Q200.02 127.24 196.12 100.14A32 32 0 1 1 259.47 91.03Q263.37 118.13 241.46 190.61M250 250L258.54 190.61M258.54 190.61Q236.63 118.13 240.53 91.03A32 32 0 1 1 303.88 100.14Q299.98 127.24 258.54 190.61M250 250L274.92 195.42M274.92 195.42Q274.32 119.71 285.7 94.8A32 32 0 1 1 343.91 121.39Q332.54 146.29 274.92 195.42M250 250L289.29 204.66M289.29 204.66Q310.05 131.84 327.97 111.15A32 32 0 1 1 376.34 153.06Q358.41 173.75 289.29 204.66M250 250L300.48 217.56M300.48 217.56Q340.91 153.54 363.94 138.74A32 32 0 1 1 398.54 192.58Q375.51 207.38 300.48 217.56M250 250L307.57 233.1M307.57 233.1Q364.4 183.06 390.67 175.35A32 32 0 1 1 408.7 236.75Q382.43 244.47 307.57 233.1M250 250L310 250M310 250Q378.62 218 406 218A32 32 0 1 1 406 282Q378.62 282 310 250"/>
</svg>
