<svg viewbox="0 0 500 500" width="500" height="500" xmlns="http://www.w3.org/2000/svg">
<rect x="0" y="0" width="100%" height="100%" fill="white"/>
<path fill="lightblue" stroke="black" stroke-width="1.5" stroke-linejoin="round" d="M400 250A1.25 1.25 0 0 1 399.36 252.41Q397.72 252.12 396.5 250Q397.72 247.88 399.36 247.59A1.25 1.25 0 0 1 400 250M394.89 288.82A1.79 1.79 0 0 1 393.11 291.9Q390.96 290.9 390.06 287.53Q392.53 285.06 394.89 285.27A1.79 1.79 0 0 1 394.89 288.82M379.9 325A2.32 2.32 0 0 1 376.63 328.27Q374.27 326.29 374.27 321.75Q378.21 319.48 381.1 320.53A2.32 2.32 0 0 1 379.9 325M356.07 356.07A2.86 2.86 0 0 1 351.14 358.91Q348.96 355.81 350.41 350.41Q355.81 348.96 358.91 351.14A2.86 2.86 0 0 1 356.07 356.07M325 379.9A3.39 3.39 0 0 1 318.47 381.65Q316.93 377.42 320.25 371.68Q326.89 371.68 329.78 375.12A3.39 3.39 0 0 1 325 379.9M288.82 394.89A3.93 3.93 0 0 1 281 394.89Q280.54 389.7 285.98 384.26Q293.4 386.25 295.6 390.98A3.93 3.93 0 0 1 288.82 394.89M250 400A4.46 4.46 0 0 1 241.41 397.7Q242.44 391.87 250 387.5Q257.56 391.87 258.59 397.7A4.46 4.46 0 0 1 250 400M211.18 394.89A5 5 0 0 1 202.55 389.91Q205.35 383.9 214.8 381.37Q221.72 388.28 221.14 394.89A5 5 0 0 1 211.18 394.89M175 379.9A5.54 5.54 0 0 1 167.2 372.1Q171.92 366.48 182.75 366.48Q188.16 375.86 185.65 382.76A5.54 5.54 0 0 1 175 379.9M143.93 356.07A6.07 6.07 0 0 1 137.89 345.59Q144.48 340.97 155.95 344.05Q159.03 355.52 154.41 362.11A6.07 6.07 0 0 1 143.93 356.07M120.1 325A6.61 6.61 0 0 1 116.69 312.28Q124.92 309.29 136.12 315.75Q136.12 328.68 129.4 334.31A6.61 6.61 0 0 1 120.1 325M105.11 288.82A7.14 7.14 0 0 1 105.11 274.59Q114.55 273.77 124.43 283.65Q120.81 297.14 112.23 301.15A7.14 7.14 0 0 1 105.11 288.82M100 250A7.68 7.68 0 0 1 103.96 235.22Q113.99 236.99 121.5 250Q113.99 263.01 103.96 264.78A7.68 7.68 0 0 1 100 250M105.11 211.18A8.21 8.21 0 0 1 113.29 197Q123.17 201.61 127.33 217.13Q115.96 228.49 105.11 227.54A8.21 8.21 0 0 1 105.11 211.18M120.1 175A8.75 8.75 0 0 1 132.42 162.67Q141.31 170.13 141.31 187.25Q126.49 195.81 115.58 191.84A8.75 8.75 0 0 1 120.1 175M143.93 143.93A9.29 9.29 0 0 1 159.96 134.68Q167.02 144.77 162.32 162.32Q144.77 167.02 134.68 159.96A9.29 9.29 0 0 1 143.93 143.93M175 120.1A9.82 9.82 0 0 1 193.9 115.03Q198.36 127.27 188.75 143.91Q169.54 143.91 161.16 133.93A9.82 9.82 0 0 1 175 120.1M211.18 105.11A10.36 10.36 0 0 1 231.81 105.11Q233.01 118.8 218.68 133.12Q199.11 127.88 193.31 115.43A10.36 10.36 0 0 1 211.18 105.11M250 100A10.89 10.89 0 0 1 270.96 105.62Q268.45 119.85 250 130.5Q231.55 119.85 229.04 105.62A10.89 10.89 0 0 1 250 100M288.82 105.11A11.43 11.43 0 0 1 308.54 116.5Q302.14 130.23 280.54 136.02Q264.73 120.21 266.05 105.11A11.43 11.43 0 0 1 288.82 105.11M325 120.1A11.96 11.96 0 0 1 341.86 136.95Q331.66 149.11 308.25 149.11Q296.55 128.84 301.97 113.93A11.96 11.96 0 0 1 325 120.1M356.07 143.93A12.5 12.5 0 0 1 368.52 165.5Q354.94 175.01 331.32 168.68Q324.99 145.06 334.5 131.48A12.5 12.5 0 0 1 356.07 143.93M379.9 175A13.04 13.04 0 0 1 386.63 200.09Q370.38 206 348.29 193.25Q348.29 167.75 361.54 156.63A13.04 13.04 0 0 1 379.9 175M394.89 211.18A13.57 13.57 0 0 1 394.89 238.22Q376.96 239.79 358.18 221.01Q365.06 195.37 381.37 187.76A13.57 13.57 0 0 1 394.89 211.18"/>
</svg>
