<svg viewbox="0 0 500 500" width="500" height="500" xmlns="http://www.w3.org/2000/svg">
<rect x="0" y="0" width="100%" height="100%" fill="white"/>
<path fill="lightblue" stroke="black" stroke-width="1.5" stroke-linejoin="round" d="M100 200L400 200L400 500L100 500L100 200ZM100 200L80 220ZM400 200L420 220ZM100 200L250 50L400 200ZM140 380L140 430L190 430L190 380L140 380ZM165 380L165 430ZM140 405L190 405ZM140 380ZM270 370L270 500L340 500L340 370L270 370ZM325 440A5 5 0 1 1 325 430A5 5 0 1 1 325 440ZM140 260L140 310L190 310L190 260L140 260ZM165 260L165 310ZM140 285L190 285ZM140 260ZM230 260L230 310L280 310L280 260L230 260ZM255 260L255 310ZM230 285L280 285ZM230 260ZM320 260L320 310L370 310L370 260L320 260ZM345 260L345 310ZM320 285L370 285ZM320 260Z"/>
</svg>
