<?xml version="1.0" ?><svg xmlns="http://www.w3.org/2000/svg" viewbox="0 0 250 250" height="300px" version="1.1" width="300px">
<rect x="0" y="0" width="100%" height="100%" fill="#6d98f6"/>
<path fill="none" stroke="black" stroke-width="2" stroke-linejoin="round" d="M -12 23 A 20 20 0 0 0 8 3 A 20 20 0 0 0 28 23 M 28 23 Z M 28 23 A 20 20 0 0 0 48 3 A 20 20 0 0 0 68 23 M 68 23 Z M 68 23 A 20 20 0 0 0 88 3 A 20 20 0 0 0 108 23 M 108 23 Z M 108 23 A 20 20 0 0 0 128 3 A 20 20 0 0 0 148 23 M 148 23 Z M 148 23 A 20 20 0 0 0 168 3 A 20 20 0 0 0 188 23 M 188 23 Z M 188 23 A 20 20 0 0 0 208 3 A 20 20 0 0 0 228 23 M 228 23 Z M 228 23 A 20 20 0 0 0 248 3 A 20 20 0 0 0 268 23 M 268 23 Z M 268 23 A 20 20 0 0 0 288 3 A 20 20 0 0 0 308 23 M 308 23 Z M 308 23 Z M 0 53 A 20 20 0 0 0 20 33 A 20 20 0 0 0 40 53 M 40 53 Z M 40 53 A 20 20 0 0 0 60 33 A 20 20 0 0 0 80 53 M 80 53 Z M 80 53 A 20 20 0 0 0 100 33 A 20 20 0 0 0 120 53 M 120 53 Z M 120 53 A 20 20 0 0 0 140 33 A 20 20 0 0 0 160 53 M 160 53 Z M 160 53 A 20 20 0 0 0 180 33 A 20 20 0 0 0 200 53 M 200 53 Z M 200 53 A 20 20 0 0 0 220 33 A 20 20 0 0 0 240 53 M 240 53 Z M 240 53 A 20 20 0 0 0 260 33 A 20 20 0 0 0 280 53 M 280 53 Z M 280 53 A 20 20 0 0 0 300 33 A 20 20 0 0 0 320 53 M 320 53 Z M 320 53 Z M -12 83 A 20 20 0 0 0 8 63 A 20 20 0 0 0 28 83 M 28 83 Z M 28 83 A 20 20 0 0 0 48 63 A 20 20 0 0 0 68 83 M 68 83 Z M 68 83 A 20 20 0 0 0 88 63 A 20 20 0 0 0 108 83 M 108 83 Z M 108 83 A 20 20 0 0 0 128 63 A 20 20 0 0 0 148 83 M 148 83 Z M 148 83 A 20 20 0 0 0 168 63 A 20 20 0 0 0 188 83 M 188 83 Z M 188 83 A 20 20 0 0 0 208 63 A 20 20 0 0 0 228 83 M 228 83 Z M 228 83 A 20 20 0 0 0 248 63 A 20 20 0 0 0 268 83 M 268 83 Z M 268 83 A 20 20 0 0 0 288 63 A 20 20 0 0 0 308 83 M 308 83 Z M 308 83 Z M 0 113 A 20 20 0 0 0 20 93 A 20 20 0 0 0 40 113 M 40 113 Z M 40 113 A 20 20 0 0 0 60 93 A 20 20 0 0 0 80 113 M 80 113 Z M 80 113 A 20 20 0 0 0 100 93 A 20 20 0 0 0 120 113 M 120 113 Z M 120 113 A 20 20 0 0 0 140 93 A 20 20 0 0 0 160 113 M 160 113 Z M 160 113 A 20 20 0 0 0 180 93 A 20 20 0 0 0 200 113 M 200 113 Z M 200 113 A 20 20 0 0 0 220 93 A 20 20 0 0 0 240 113 M 240 113 Z M 240 113 A 20 20 0 0 0 260 93 A 20 20 0 0 0 280 113 M 280 113 Z M 280 113 A 20 20 0 0 0 300 93 A 20 20 0 0 0 320 113 M 320 113 Z M 320 113 Z M -12 143 A 20 20 0 0 0 8 123 A 20 20 0 0 0 28 143 M 28 143 Z M 28 143 A 20 20 0 0 0 48 123 A 20 20 0 0 0 68 143 M 68 143 Z M 68 143 A 20 20 0 0 0 88 123 A 20 20 0 0 0 108 143 M 108 143 Z M 108 143 A 20 20 0 0 0 128 123 A 20 20 0 0 0 148 143 M 148 143 Z M 148 143 A 20 20 0 0 0 168 123 A 20 20 0 0 0 188 143 M 188 143 Z M 188 143 A 20 20 0 0 0 208 123 A 20 20 0 0 0 228 143 M 228 143 Z M 228 143 A 20 20 0 0 0 248 123 A 20 20 0 0 0 268 143 M 268 143 Z M 268 143 A 20 20 0 0 0 288 123 A 20 20 0 0 0 308 143 M 308 143 Z M 308 143 Z M 0 173 A 20 20 0 0 0 20 153 A 20 20 0 0 0 40 173 M 40 173 Z M 40 173 A 20 20 0 0 0 60 153 A 20 20 0 0 0 80 173 M 80 173 Z M 80 173 A 20 20 0 0 0 100 153 A 20 20 0 0 0 120 173 M 120 173 Z M 120 173 A 20 20 0 0 0 140 153 A 20 20 0 0 0 160 173 M 160 173 Z M 160 173 A 20 20 0 0 0 180 153 A 20 20 0 0 0 200 173 M 200 173 Z M 200 173 A 20 20 0 0 0 220 153 A 20 20 0 0 0 240 173 M 240 173 Z M 240 173 A 20 20 0 0 0 260 153 A 20 20 0 0 0 280 173 M 280 173 Z M 280 173 A 20 20 0 0 0 300 153 A 20 20 0 0 0 320 173 M 320 173 Z M 320 173 Z M -12 203 A 20 20 0 0 0 8 183 A 20 20 0 0 0 28 203 M 28 203 Z M 28 203 A 20 20 0 0 0 48 183 A 20 20 0 0 0 68 203 M 68 203 Z M 68 203 A 20 20 0 0 0 88 183 A 20 20 0 0 0 108 203 M 108 203 Z M 108 203 A 20 20 0 0 0 128 183 A 20 20 0 0 0 148 203 M 148 203 Z M 148 203 A 20 20 0 0 0 168 183 A 20 20 0 0 0 188 203 M 188 203 Z M 188 203 A 20 20 0 0 0 208 183 A 20 20 0 0 0 228 203 M 228 203 Z M 228 203 A 20 20 0 0 0 248 183 A 20 20 0 0 0 268 203 M 268 203 Z M 268 203 A 20 20 0 0 0 288 183 A 20 20 0 0 0 308 203 M 308 203 Z M 308 203 Z M 0 233 A 20 20 0 0 0 20 213 A 20 20 0 0 0 40 233 M 40 233 Z M 40 233 A 20 20 0 0 0 60 213 A 20 20 0 0 0 80 233 M 80 233 Z M 80 233 A 20 20 0 0 0 100 213 A 20 20 0 0 0 120 233 M 120 233 Z M 120 233 A 20 20 0 0 0 140 213 A 20 20 0 0 0 160 233 M 160 233 Z M 160 233 A 20 20 0 0 0 180 213 A 20 20 0 0 0 200 233 M 200 233 Z M 200 233 A 20 20 0 0 0 220 213 A 20 20 0 0 0 240 233 M 240 233 Z M 240 233 A 20 20 0 0 0 260 213 A 20 20 0 0 0 280 233 M 280 233 Z M 280 233 A 20 20 0 0 0 300 213 A 20 20 0 0 0 320 233 M 320 233 Z M 320 233 Z M -12 263 A 20 20 0 0 0 8 243 A 20 20 0 0 0 28 263 M 28 263 Z M 28 263 A 20 20 0 0 0 48 243 A 20 20 0 0 0 68 263 M 68 263 Z M 68 263 A 20 20 0 0 0 88 243 A 20 20 0 0 0 108 263 M 108 263 Z M 108 263 A 20 20 0 0 0 128 243 A 20 20 0 0 0 148 263 M 148 263 Z M 148 263 A 20 20 0 0 0 168 243 A 20 20 0 0 0 188 263 M 188 263 Z M 188 263 A 20 20 0 0 0 208 243 A 20 20 0 0 0 228 263 M 228 263 Z M 228 263 A 20 20 0 0 0 248 243 A 20 20 0 0 0 268 263 M 268 263 Z M 268 263 A 20 20 0 0 0 288 243 A 20 20 0 0 0 308 263 M 308 263 Z M 308 263 Z M 0 293 A 20 20 0 0 0 20 273 A 20 20 0 0 0 40 293 M 40 293 Z M 40 293 A 20 20 0 0 0 60 273 A 20 20 0 0 0 80 293 M 80 293 Z M 80 293 A 20 20 0 0 0 100 273 A 20 20 0 0 0 120 293 M 120 293 Z M 120 293 A 20 20 0 0 0 140 273 A 20 20 0 0 0 160 293 M 160 293 Z M 160 293 A 20 20 0 0 0 180 273 A 20 20 0 0 0 200 293 M 200 293 Z M 200 293 A 20 20 0 0 0 220 273 A 20 20 0 0 0 240 293 M 240 293 Z M 240 293 A 20 20 0 0 0 260 273 A 20 20 0 0 0 280 293 M 280 293 Z M 280 293 A 20 20 0 0 0 300 273 A 20 20 0 0 0 320 293 M 320 293 Z M 320 293 Z M -12 323 A 20 20 0 0 0 8 303 A 20 20 0 0 0 28 323 M 28 323 Z M 28 323 A 20 20 0 0 0 48 303 A 20 20 0 0 0 68 323 M 68 323 Z M 68 323 A 20 20 0 0 0 88 303 A 20 20 0 0 0 108 323 M 108 323 Z M 108 323 A 20 20 0 0 0 128 303 A 20 20 0 0 0 148 323 M 148 323 Z M 148 323 A 20 20 0 0 0 168 303 A 20 20 0 0 0 188 323 M 188 323 Z M 188 323 A 20 20 0 0 0 208 303 A 20 20 0 0 0 228 323 M 228 323 Z M 228 323 A 20 20 0 0 0 248 303 A 20 20 0 0 0 268 323 M 268 323 Z M 268 323 A 20 20 0 0 0 288 303 A 20 20 0 0 0 308 323 M 308 323 Z M 308 323 Z M 0 353 A 20 20 0 0 0 20 333 A 20 20 0 0 0 40 353 M 40 353 Z M 40 353 A 20 20 0 0 0 60 333 A 20 20 0 0 0 80 353 M 80 353 Z M 80 353 A 20 20 0 0 0 100 333 A 20 20 0 0 0 120 353 M 120 353 Z M 120 353 A 20 20 0 0 0 140 333 A 20 20 0 0 0 160 353 M 160 353 Z M 160 353 A 20 20 0 0 0 180 333 A 20 20 0 0 0 200 353 M 200 353 Z M 200 353 A 20 20 0 0 0 220 333 A 20 20 0 0 0 240 353 M 240 353 Z M 240 353 A 20 20 0 0 0 260 333 A 20 20 0 0 0 280 353 M 280 353 Z M 280 353 A 20 20 0 0 0 300 333 A 20 20 0 0 0 320 353 M 320 353 Z M 320 353 Z M -12 383 A 20 20 0 0 0 8 363 A 20 20 0 0 0 28 383 M 28 383 Z M 28 383 A 20 20 0 0 0 48 363 A 20 20 0 0 0 68 383 M 68 383 Z M 68 383 A 20 20 0 0 0 88 363 A 20 20 0 0 0 108 383 M 108 383 Z M 108 383 A 20 20 0 0 0 128 363 A 20 20 0 0 0 148 383 M 148 383 Z M 148 383 A 20 20 0 0 0 168 363 A 20 20 0 0 0 188 383 M 188 383 Z M 188 383 A 20 20 0 0 0 208 363 A 20 20 0 0 0 228 383 M 228 383 Z M 228 383 A 20 20 0 0 0 248 363 A 20 20 0 0 0 268 383 M 268 383 Z M 268 383 A 20 20 0 0 0 288 363 A 20 20 0 0 0 308 383 M 308 383 Z M 308 383 Z M 0 413 A 20 20 0 0 0 20 393 A 20 20 0 0 0 40 413 M 40 413 Z M 40 413 A 20 20 0 0 0 60 393 A 20 20 0 0 0 80 413 M 80 413 Z M 80 413 A 20 20 0 0 0 100 393 A 20 20 0 0 0 120 413 M 120 413 Z M 120 413 A 20 20 0 0 0 140 393 A 20 20 0 0 0 160 413 M 160 413 Z M 160 413 A 20 20 0 0 0 180 393 A 20 20 0 0 0 200 413 M 200 413 Z M 200 413 A 20 20 0 0 0 220 393 A 20 20 0 0 0 240 413 M 240 413 Z M 240 413 A 20 20 0 0 0 260 393 A 20 20 0 0 0 280 413 M 280 413 Z M 280 413 A 20 20 0 0 0 300 393 A 20 20 0 0 0 320 413 M 320 413 Z M 320 413 Z M -12 443 A 20 20 0 0 0 8 423 A 20 20 0 0 0 28 443 M 28 443 Z M 28 443 A 20 20 0 0 0 48 423 A 20 20 0 0 0 68 443 M 68 443 Z M 68 443 A 20 20 0 0 0 88 423 A 20 20 0 0 0 108 443 M 108 443 Z M 108 443 A 20 20 0 0 0 128 423 A 20 20 0 0 0 148 443 M 148 443 Z M 148 443 A 20 20 0 0 0 168 423 A 20 20 0 0 0 188 443 M 188 443 Z M 188 443 A 20 20 0 0 0 208 423 A 20 20 0 0 0 228 443 M 228 443 Z M 228 443 A 20 20 0 0 0 248 423 A 20 20 0 0 0 268 443 M 268 443 Z M 268 443 A 20 20 0 0 0 288 423 A 20 20 0 0 0 308 443 M 308 443 Z M 308 443 Z M 0 473 A 20 20 0 0 0 20 453 A 20 20 0 0 0 40 473 M 40 473 Z M 40 473 A 20 20 0 0 0 60 453 A 20 20 0 0 0 80 473 M 80 473 Z M 80 473 A 20 20 0 0 0 100 453 A 20 20 0 0 0 120 473 M 120 473 Z M 120 473 A 20 20 0 0 0 140 453 A 20 20 0 0 0 160 473 M 160 473 Z M 160 473 A 20 20 0 0 0 180 453 A 20 20 0 0 0 200 473 M 200 473 Z M 200 473 A 20 20 0 0 0 220 453 A 20 20 0 0 0 240 473 M 240 473 Z M 240 473 A 20 20 0 0 0 260 453 A 20 20 0 0 0 280 473 M 280 473 Z M 280 473 A 20 20 0 0 0 300 453 A 20 20 0 0 0 320 473 M 320 473 Z M 320 473 Z M -12 503 A 20 20 0 0 0 8 483 A 20 20 0 0 0 28 503 M 28 503 Z M 28 503 A 20 20 0 0 0 48 483 A 20 20 0 0 0 68 503 M 68 503 Z M 68 503 A 20 20 0 0 0 88 483 A 20 20 0 0 0 108 503 M 108 503 Z M 108 503 A 20 20 0 0 0 128 483 A 20 20 0 0 0 148 503 M 148 503 Z M 148 503 A 20 20 0 0 0 168 483 A 20 20 0 0 0 188 503 M 188 503 Z M 188 503 A 20 20 0 0 0 208 483 A 20 20 0 0 0 228 503 M 228 503 Z M 228 503 A 20 20 0 0 0 248 483 A 20 20 0 0 0 268 503 M 268 503 Z M 268 503 A 20 20 0 0 0 288 483 A 20 20 0 0 0 308 503 M 308 503 Z M 308 503 Z M 0 533 A 20 20 0 0 0 20 513 A 20 20 0 0 0 40 533 M 40 533 Z M 40 533 A 20 20 0 0 0 60 513 A 20 20 0 0 0 80 533 M 80 533 Z M 80 533 A 20 20 0 0 0 100 513 A 20 20 0 0 0 120 533 M 120 533 Z M 120 533 A 20 20 0 0 0 140 513 A 20 20 0 0 0 160 533 M 160 533 Z M 160 533 A 20 20 0 0 0 180 513 A 20 20 0 0 0 200 533 M 200 533 Z M 200 533 A 20 20 0 0 0 220 513 A 20 20 0 0 0 240 533 M 240 533 Z M 240 533 A 20 20 0 0 0 260 513 A 20 20 0 0 0 280 533 M 280 533 Z M 280 533 A 20 20 0 0 0 300 513 A 20 20 0 0 0 320 533 M 320 533 Z M 320 533 Z M -12 563 A 20 20 0 0 0 8 543 A 20 20 0 0 0 28 563 M 28 563 Z M 28 563 A 20 20 0 0 0 48 543 A 20 20 0 0 0 68 563 M 68 563 Z M 68 563 A 20 20 0 0 0 88 543 A 20 20 0 0 0 108 563 M 108 563 Z M 108 563 A 20 20 0 0 0 128 543 A 20 20 0 0 0 148 563 M 148 563 Z M 148 563 A 20 20 0 0 0 168 543 A 20 20 0 0 0 188 563 M 188 563 Z M 188 563 A 20 20 0 0 0 208 543 A 20 20 0 0 0 228 563 M 228 563 Z M 228 563 A 20 20 0 0 0 248 543 A 20 20 0 0 0 268 563 M 268 563 Z M 268 563 A 20 20 0 0 0 288 543 A 20 20 0 0 0 308 563 M 308 563 Z M 308 563 Z M 0 593 A 20 20 0 0 0 20 573 A 20 20 0 0 0 40 593 M 40 593 Z M 40 593 A 20 20 0 0 0 60 573 A 20 20 0 0 0 80 593 M 80 593 Z M 80 593 A 20 20 0 0 0 100 573 A 20 20 0 0 0 120 593 M 120 593 Z M 120 593 A 20 20 0 0 0 140 573 A 20 20 0 0 0 160 593 M 160 593 Z M 160 593 A 20 20 0 0 0 180 573 A 20 20 0 0 0 200 593 M 200 593 Z M 200 593 A 20 20 0 0 0 220 573 A 20 20 0 0 0 240 593 M 240 593 Z M 240 593 A 20 20 0 0 0 260 573 A 20 20 0 0 0 280 593 M 280 593 Z M 280 593 A 20 20 0 0 0 300 573 A 20 20 0 0 0 320 593 M 320 593 Z M 320 593 Z M -12 623 A 20 20 0 0 0 8 603 A 20 20 0 0 0 28 623 M 28 623 Z M 28 623 A 20 20 0 0 0 48 603 A 20 20 0 0 0 68 623 M 68 623 Z M 68 623 A 20 20 0 0 0 88 603 A 20 20 0 0 0 108 623 M 108 623 Z M 108 623 A 20 20 0 0 0 128 603 A 20 20 0 0 0 148 623 M 148 623 Z M 148 623 A 20 20 0 0 0 168 603 A 20 20 0 0 0 188 623 M 188 623 Z M 188 623 A 20 20 0 0 0 208 603 A 20 20 0 0 0 228 623 M 228 623 Z M 228 623 A 20 20 0 0 0 248 603 A 20 20 0 0 0 268 623 M 268 623 Z M 268 623 A 20 20 0 0 0 288 603 A 20 20 0 0 0 308 623 M 308 623 Z M 308 623 Z M 0 653 A 20 20 0 0 0 20 633 A 20 20 0 0 0 40 653 M 40 653 Z M 40 653 A 20 20 0 0 0 60 633 A 20 20 0 0 0 80 653 M 80 653 Z M 80 653 A 20 20 0 0 0 100 633 A 20 20 0 0 0 120 653 M 120 653 Z M 120 653 A 20 20 0 0 0 140 633 A 20 20 0 0 0 160 653 M 160 653 Z M 160 653 A 20 20 0 0 0 180 633 A 20 20 0 0 0 200 653 M 200 653 Z M 200 653 A 20 20 0 0 0 220 633 A 20 20 0 0 0 240 653 M 240 653 Z M 240 653 A 20 20 0 0 0 260 633 A 20 20 0 0 0 280 653 M 280 653 Z M 280 653 A 20 20 0 0 0 300 633 A 20 20 0 0 0 320 653 M 320 653 Z M 320 653 Z M -12 683 A 20 20 0 0 0 8 663 A 20 20 0 0 0 28 683 M 28 683 Z M 28 683 A 20 20 0 0 0 48 663 A 20 20 0 0 0 68 683 M 68 683 Z M 68 683 A 20 20 0 0 0 88 663 A 20 20 0 0 0 108 683 M 108 683 Z M 108 683 A 20 20 0 0 0 128 663 A 20 20 0 0 0 148 683 M 148 683 Z M 148 683 A 20 20 0 0 0 168 663 A 20 20 0 0 0 188 683 M 188 683 Z M 188 683 A 20 20 0 0 0 208 663 A 20 20 0 0 0 228 683 M 228 683 Z M 228 683 A 20 20 0 0 0 248 663 A 20 20 0 0 0 268 683 M 268 683 Z M 268 683 A 20 20 0 0 0 288 663 A 20 20 0 0 0 308 683 M 308 683 Z M 308 683 Z M 0 713 A 20 20 0 0 0 20 693 A 20 20 0 0 0 40 713 M 40 713 Z M 40 713 A 20 20 0 0 0 60 693 A 20 20 0 0 0 80 713 M 80 713 Z M 80 713 A 20 20 0 0 0 100 693 A 20 20 0 0 0 120 713 M 120 713 Z M 120 713 A 20 20 0 0 0 140 693 A 20 20 0 0 0 160 713 M 160 713 Z M 160 713 A 20 20 0 0 0 180 693 A 20 20 0 0 0 200 713 M 200 713 Z M 200 713 A 20 20 0 0 0 220 693 A 20 20 0 0 0 240 713 M 240 713 Z M 240 713 A 20 20 0 0 0 260 693 A 20 20 0 0 0 280 713 M 280 713 Z M 280 713 A 20 20 0 0 0 300 693 A 20 20 0 0 0 320 713 M 320 713 Z M 320 713 Z M -12 743 A 20 20 0 0 0 8 723 A 20 20 0 0 0 28 743 M 28 743 Z M 28 743 A 20 20 0 0 0 48 723 A 20 20 0 0 0 68 743 M 68 743 Z M 68 743 A 20 20 0 0 0 88 723 A 20 20 0 0 0 108 743 M 108 743 Z M 108 743 A 20 20 0 0 0 128 723 A 20 20 0 0 0 148 743 M 148 743 Z M 148 743 A 20 20 0 0 0 168 723 A 20 20 0 0 0 188 743 M 188 743 Z M 188 743 A 20 20 0 0 0 208 723 A 20 20 0 0 0 228 743 M 228 743 Z M 228 743 A 20 20 0 0 0 248 723 A 20 20 0 0 0 268 743 M 268 743 Z M 268 743 A 20 20 0 0 0 288 723 A 20 20 0 0 0 308 743 M 308 743 Z M 308 743 Z M 0 773 A 20 20 0 0 0 20 753 A 20 20 0 0 0 40 773 M 40 773 Z M 40 773 A 20 20 0 0 0 60 753 A 20 20 0 0 0 80 773 M 80 773 Z M 80 773 A 20 20 0 0 0 100 753 A 20 20 0 0 0 120 773 M 120 773 Z M 120 773 A 20 20 0 0 0 140 753 A 20 20 0 0 0 160 773 M 160 773 Z M 160 773 A 20 20 0 0 0 180 753 A 20 20 0 0 0 200 773 M 200 773 Z M 200 773 A 20 20 0 0 0 220 753 A 20 20 0 0 0 240 773 M 240 773 Z M 240 773 A 20 20 0 0 0 260 753 A 20 20 0 0 0 280 773 M 280 773 Z M 280 773 A 20 20 0 0 0 300 753 A 20 20 0 0 0 320 773 M 320 773 Z M 320 773 Z M -12 803 A 20 20 0 0 0 8 783 A 20 20 0 0 0 28 803 M 28 803 Z M 28 803 A 20 20 0 0 0 48 783 A 20 20 0 0 0 68 803 M 68 803 Z M 68 803 A 20 20 0 0 0 88 783 A 20 20 0 0 0 108 803 M 108 803 Z M 108 803 A 20 20 0 0 0 128 783 A 20 20 0 0 0 148 803 M 148 803 Z M 148 803 A 20 20 0 0 0 168 783 A 20 20 0 0 0 188 803 M 188 803 Z M 188 803 A 20 20 0 0 0 208 783 A 20 20 0 0 0 228 803 M 228 803 Z M 228 803 A 20 20 0 0 0 248 783 A 20 20 0 0 0 268 803 M 268 803 Z M 268 803 A 20 20 0 0 0 288 783 A 20 20 0 0 0 308 803 M 308 803 Z M 308 803 Z M 0 833 A 20 20 0 0 0 20 813 A 20 20 0 0 0 40 833 M 40 833 Z M 40 833 A 20 20 0 0 0 60 813 A 20 20 0 0 0 80 833 M 80 833 Z M 80 833 A 20 20 0 0 0 100 813 A 20 20 0 0 0 120 833 M 120 833 Z M 120 833 A 20 20 0 0 0 140 813 A 20 20 0 0 0 160 833 M 160 833 Z M 160 833 A 20 20 0 0 0 180 813 A 20 20 0 0 0 200 833 M 200 833 Z M 200 833 A 20 20 0 0 0 220 813 A 20 20 0 0 0 240 833 M 240 833 Z M 240 833 A 20 20 0 0 0 260 813 A 20 20 0 0 0 280 833 M 280 833 Z M 280 833 A 20 20 0 0 0 300 813 A 20 20 0 0 0 320 833 M 320 833 Z M 320 833 Z M -12 863 A 20 20 0 0 0 8 843 A 20 20 0 0 0 28 863 M 28 863 Z M 28 863 A 20 20 0 0 0 48 843 A 20 20 0 0 0 68 863 M 68 863 Z M 68 863 A 20 20 0 0 0 88 843 A 20 20 0 0 0 108 863 M 108 863 Z M 108 863 A 20 20 0 0 0 128 843 A 20 20 0 0 0 148 863 M 148 863 Z M 148 863 A 20 20 0 0 0 168 843 A 20 20 0 0 0 188 863 M 188 863 Z M 188 863 A 20 20 0 0 0 208 843 A 20 20 0 0 0 228 863 M 228 863 Z M 228 863 A 20 20 0 0 0 248 843 A 20 20 0 0 0 268 863 M 268 863 Z M 268 863 A 20 20 0 0 0 288 843 A 20 20 0 0 0 308 863 M 308 863 Z M 308 863 Z M 0 893 A 20 20 0 0 0 20 873 A 20 20 0 0 0 40 893 M 40 893 Z M 40 893 A 20 20 0 0 0 60 873 A 20 20 0 0 0 80 893 M 80 893 Z M 80 893 A 20 20 0 0 0 100 873 A 20 20 0 0 0 120 893 M 120 893 Z M 120 893 A 20 20 0 0 0 140 873 A 20 20 0 0 0 160 893 M 160 893 Z M 160 893 A 20 20 0 0 0 180 873 A 20 20 0 0 0 200 893 M 200 893 Z M 200 893 A 20 20 0 0 0 220 873 A 20 20 0 0 0 240 893 M 240 893 Z M 240 893 A 20 20 0 0 0 260 873 A 20 20 0 0 0 280 893 M 280 893 Z M 280 893 A 20 20 0 0 0 300 873 A 20 20 0 0 0 320 893 M 320 893 Z M 320 893 Z M -12 923 A 20 20 0 0 0 8 903 A 20 20 0 0 0 28 923 M 28 923 Z M 28 923 A 20 20 0 0 0 48 903 A 20 20 0 0 0 68 923 M 68 923 Z M 68 923 A 20 20 0 0 0 88 903 A 20 20 0 0 0 108 923 M 108 923 Z M 108 923 A 20 20 0 0 0 128 903 A 20 20 0 0 0 148 923 M 148 923 Z M 148 923 A 20 20 0 0 0 168 903 A 20 20 0 0 0 188 923 M 188 923 Z M 188 923 A 20 20 0 0 0 208 903 A 20 20 0 0 0 228 923 M 228 923 Z M 228 923 A 20 20 0 0 0 248 903 A 20 20 0 0 0 268 923 M 268 923 Z M 268 923 A 20 20 0 0 0 288 903 A 20 20 0 0 0 308 923 M 308 923 Z M 308 923 Z M 0 953 A 20 20 0 0 0 20 933 A 20 20 0 0 0 40 953 M 40 953 Z M 40 953 A 20 20 0 0 0 60 933 A 20 20 0 0 0 80 953 M 80 953 Z M 80 953 A 20 20 0 0 0 100 933 A 20 20 0 0 0 120 953 M 120 953 Z M 120 953 A 20 20 0 0 0 140 933 A 20 20 0 0 0 160 953 M 160 953 Z M 160 953 A 20 20 0 0 0 180 933 A 20 20 0 0 0 200 953 M 200 953 Z M 200 953 A 20 20 0 0 0 220 933 A 20 20 0 0 0 240 953 M 240 953 Z M 240 953 A 20 20 0 0 0 260 933 A 20 20 0 0 0 280 953 M 280 953 Z M 280 953 A 20 20 0 0 0 300 933 A 20 20 0 0 0 320 953 M 320 953 Z M 320 953 Z M -12 983 A 20 20 0 0 0 8 963 A 20 20 0 0 0 28 983 M 28 983 Z M 28 983 A 20 20 0 0 0 48 963 A 20 20 0 0 0 68 983 M 68 983 Z M 68 983 A 20 20 0 0 0 88 963 A 20 20 0 0 0 108 983 M 108 983 Z M 108 983 A 20 20 0 0 0 128 963 A 20 20 0 0 0 148 983 M 148 983 Z M 148 983 A 20 20 0 0 0 168 963 A 20 20 0 0 0 188 983 M 188 983 Z M 188 983 A 20 20 0 0 0 208 963 A 20 20 0 0 0 228 983 M 228 983 Z M 228 983 A 20 20 0 0 0 248 963 A 20 20 0 0 0 268 983 M 268 983 Z M 268 983 A 20 20 0 0 0 288 963 A 20 20 0 0 0 308 983 M 308 983 Z M 308 983 Z M 0 1013 A 20 20 0 0 0 20 993 A 20 20 0 0 0 40 1013 M 40 1013 Z M 40 1013 A 20 20 0 0 0 60 993 A 20 20 0 0 0 80 1013 M 80 1013 Z M 80 1013 A 20 20 0 0 0 100 993 A 20 20 0 0 0 120 1013 M 120 1013 Z M 120 1013 A 20 20 0 0 0 140 993 A 20 20 0 0 0 160 1013 M 160 1013 Z M 160 1013 A 20 20 0 0 0 180 993 A 20 20 0 0 0 200 1013 M 200 1013 Z M 200 1013 A 20 20 0 0 0 220 993 A 20 20 0 0 0 240 1013 M 240 1013 Z M 240 1013 A 20 20 0 0 0 260 993 A 20 20 0 0 0 280 1013 M 280 1013 Z M 280 1013 A 20 20 0 0 0 300 993 A 20 20 0 0 0 320 1013 M 320 1013 Z M 320 1013 Z M -12 1043 A 20 20 0 0 0 8 1023 A 20 20 0 0 0 28 1043 M 28 1043 Z M 28 1043 A 20 20 0 0 0 48 1023 A 20 20 0 0 0 68 1043 M 68 1043 Z M 68 1043 A 20 20 0 0 0 88 1023 A 20 20 0 0 0 108 1043 M 108 1043 Z M 108 1043 A 20 20 0 0 0 128 1023 A 20 20 0 0 0 148 1043 M 148 1043 Z M 148 1043 A 20 20 0 0 0 168 1023 A 20 20 0 0 0 188 1043 M 188 1043 Z M 188 1043 A 20 20 0 0 0 208 1023 A 20 20 0 0 0 228 1043 M 228 1043 Z M 228 1043 A 20 20 0 0 0 248 1023 A 20 20 0 0 0 268 1043 M 268 1043 Z M 268 1043 A 20 20 0 0 0 288 1023 A 20 20 0 0 0 308 1043 M 308 1043 Z M 308 1043 Z M 0 1073 A 20 20 0 0 0 20 1053 A 20 20 0 0 0 40 1073 M 40 1073 Z M 40 1073 A 20 20 0 0 0 60 1053 A 20 20 0 0 0 80 1073 M 80 1073 Z M 80 1073 A 20 20 0 0 0 100 1053 A 20 20 0 0 0 120 1073 M 120 1073 Z M 120 1073 A 20 20 0 0 0 140 1053 A 20 20 0 0 0 160 1073 M 160 1073 Z M 160 1073 A 20 20 0 0 0 180 1053 A 20 20 0 0 0 200 1073 M 200 1073 Z M 200 1073 A 20 20 0 0 0 220 1053 A 20 20 0 0 0 240 1073 M 240 1073 Z M 240 1073 A 20 20 0 0 0 260 1053 A 20 20 0 0 0 280 1073 M 280 1073 Z M 280 1073 A 20 20 0 0 0 300 1053 A 20 20 0 0 0 320 1073 M 320 1073 Z M 320 1073 Z M -12 1103 A 20 20 0 0 0 8 1083 A 20 20 0 0 0 28 1103 M 28 1103 Z M 28 1103 A 20 20 0 0 0 48 1083 A 20 20 0 0 0 68 1103 M 68 1103 Z M 68 1103 A 20 20 0 0 0 88 1083 A 20 20 0 0 0 108 1103 M 108 1103 Z M 108 1103 A 20 20 0 0 0 128 1083 A 20 20 0 0 0 148 1103 M 148 1103 Z M 148 1103 A 20 20 0 0 0 168 1083 A 20 20 0 0 0 188 1103 M 188 1103 Z M 188 1103 A 20 20 0 0 0 208 1083 A 20 20 0 0 0 228 1103 M 228 1103 Z M 228 1103 A 20 20 0 0 0 248 1083 A 20 20 0 0 0 268 1103 M 268 1103 Z M 268 1103 A 20 20 0 0 0 288 1083 A 20 20 0 0 0 308 1103 M 308 1103 Z M 308 1103 Z M 0 1133 A 20 20 0 0 0 20 1113 A 20 20 0 0 0 40 1133 M 40 1133 Z M 40 1133 A 20 20 0 0 0 60 1113 A 20 20 0 0 0 80 1133 M 80 1133 Z M 80 1133 A 20 20 0 0 0 100 1113 A 20 20 0 0 0 120 1133 M 120 1133 Z M 120 1133 A 20 20 0 0 0 140 1113 A 20 20 0 0 0 160 1133 M 160 1133 Z M 160 1133 A 20 20 0 0 0 180 1113 A 20 20 0 0 0 200 1133 M 200 1133 Z M 200 1133 A 20 20 0 0 0 220 1113 A 20 20 0 0 0 240 1133 M 240 1133 Z M 240 1133 A 20 20 0 0 0 260 1113 A 20 20 0 0 0 280 1133 M 280 1133 Z M 280 1133 A 20 20 0 0 0 300 1113 A 20 20 0 0 0 320 1133 M 320 1133 Z M 320 1133 Z M -12 1163 A 20 20 0 0 0 8 1143 A 20 20 0 0 0 28 1163 M 28 1163 Z M 28 1163 A 20 20 0 0 0 48 1143 A 20 20 0 0 0 68 1163 M 68 1163 Z M 68 1163 A 20 20 0 0 0 88 1143 A 20 20 0 0 0 108 1163 M 108 1163 Z M 108 1163 A 20 20 0 0 0 128 1143 A 20 20 0 0 0 148 1163 M 148 1163 Z M 148 1163 A 20 20 0 0 0 168 1143 A 20 20 0 0 0 188 1163 M 188 1163 Z M 188 1163 A 20 20 0 0 0 208 1143 A 20 20 0 0 0 228 1163 M 228 1163 Z M 228 1163 A 20 20 0 0 0 248 1143 A 20 20 0 0 0 268 1163 M 268 1163 Z M 268 1163 A 20 20 0 0 0 288 1143 A 20 20 0 0 0 308 1163 M 308 1163 Z M 308 1163 Z M 0 1193 A 20 20 0 0 0 20 1173 A 20 20 0 0 0 40 1193 M 40 1193 Z M 40 1193 A 20 20 0 0 0 60 1173 A 20 20 0 0 0 80 1193 M 80 1193 Z M 80 1193 A 20 20 0 0 0 100 1173 A 20 20 0 0 0 120 1193 M 120 1193 Z M 120 1193 A 20 20 0 0 0 140 1173 A 20 20 0 0 0 160 1193 M 160 1193 Z M 160 1193 A 20 20 0 0 0 180 1173 A 20 20 0 0 0 200 1193 M 200 1193 Z M 200 1193 A 20 20 0 0 0 220 1173 A 20 20 0 0 0 240 1193 M 240 1193 Z M 240 1193 A 20 20 0 0 0 260 1173 A 20 20 0 0 0 280 1193 M 280 1193 Z M 280 1193 A 20 20 0 0 0 300 1173 A 20 20 0 0 0 320 1193 M 320 1193 Z M 320 1193 Z"/>
<g transform="translate(35, 190) rotate(-90) scale(3)" fill="#b3d3d3" style="font-family: sans; font-weight: 1000">
  <text dominant-baseline="middle" text-anchor="middle">TURTLE!</text>
</g>
<g transform="translate(35, 23)">
  <g transform="translate(125, 50) rotate(15) scale(.8)">
    <path fill="#60ff60" stroke="black" stroke-width="3" stroke-linejoin="round" d="M 29.129138 -31.788876 L 43.07554 -1.880719 L 31.788876 29.129138 L 1.880719 43.07554 L -29.129138 31.788876 L -43.07554 1.880719 L -31.788876 -29.129138 L -1.880719 -43.07554 L 29.129138 -31.788876 Z M 14.564569 -15.894438 L 21.53777 -0.940359 L 15.894438 14.564569 L 0.940359 21.53777 L -14.564569 15.894438 L -21.53777 0.940359 L -15.894438 -14.564569 L -0.940359 -21.53777 L 14.564569 -15.894438 Z M 14.564569 -15.894438 L 29.129138 -31.788876 Z M 21.53777 -0.940359 L 43.07554 -1.880719 Z M 15.894438 14.564569 L 31.788876 29.129138 Z M 0.940359 21.53777 L 1.880719 43.07554 Z M -14.564569 15.894438 L -29.129138 31.788876 Z M -21.53777 0.940359 L -43.07554 1.880719 Z M -15.894438 -14.564569 L -31.788876 -29.129138 Z M -0.940359 -21.53777 L -1.880719 -43.07554 Z M 38.42674 -11.850104 Q 42.086784 -7.488233 45.735833 -9.189812 A 11 11 0 1 0 36.438231 -29.128583 Q 32.789183 -27.427004 33.777939 -21.81949 Z M 35.551097 18.792519 Q 56.582362 20.632516 52.224602 45.3466 Q 64.063319 12.819993 39.313319 8.4559 Z M 8.4559 -39.313319 Q 20.565017 -56.60693 -1.168184 -69.154599 Q 31.358423 -57.315882 18.792519 -35.551097 Z M 0 0 Z"/>
    <path fill="none" stroke="black" stroke-width="11" stroke-linecap="butt" stroke-dasharray="30 7" d="M -36.102339 16.834797 A 82.5 82.5 0 0 0 -82.482972 105.931164 A 220 220 0 0 1 -260.938079 360.791469 M -260.938079 360.791469 Z M 0 0 Z"/>
  </g>
  <g transform="translate(95, 185) rotate(195) scale(.8)">
    <path fill="#ff6060" stroke="black" stroke-width="3" stroke-linejoin="round" d="M 29.129138 -31.788876 L 43.07554 -1.880719 L 31.788876 29.129138 L 1.880719 43.07554 L -29.129138 31.788876 L -43.07554 1.880719 L -31.788876 -29.129138 L -1.880719 -43.07554 L 29.129138 -31.788876 Z M 14.564569 -15.894438 L 21.53777 -0.940359 L 15.894438 14.564569 L 0.940359 21.53777 L -14.564569 15.894438 L -21.53777 0.940359 L -15.894438 -14.564569 L -0.940359 -21.53777 L 14.564569 -15.894438 Z M 14.564569 -15.894438 L 29.129138 -31.788876 Z M 21.53777 -0.940359 L 43.07554 -1.880719 Z M 15.894438 14.564569 L 31.788876 29.129138 Z M 0.940359 21.53777 L 1.880719 43.07554 Z M -14.564569 15.894438 L -29.129138 31.788876 Z M -21.53777 0.940359 L -43.07554 1.880719 Z M -15.894438 -14.564569 L -31.788876 -29.129138 Z M -0.940359 -21.53777 L -1.880719 -43.07554 Z M 38.42674 -11.850104 Q 42.086784 -7.488233 45.735833 -9.189812 A 11 11 0 1 0 36.438231 -29.128583 Q 32.789183 -27.427004 33.777939 -21.81949 Z M 35.551097 18.792519 Q 56.582362 20.632516 52.224602 45.3466 Q 64.063319 12.819993 39.313319 8.4559 Z M 8.4559 -39.313319 Q 20.565017 -56.60693 -1.168184 -69.154599 Q 31.358423 -57.315882 18.792519 -35.551097 Z M 0 0 Z"/>
    <path fill="none" stroke="black" stroke-width="11" stroke-linecap="butt" stroke-dasharray="30 7" d="M -36.102339 16.834797 A 82.5 82.5 0 0 0 -82.482972 105.931164 A 220 220 0 0 1 -260.938079 360.791469 M -260.938079 360.791469 Z M 0 0 Z"/>
  </g>
</g>
<path fill="silver" stroke="black" stroke-width="2" stroke-linejoin="round" d="M 30 51 L 25.773817 41.936922 L 35.170744 45.357124 Q 49.531044 20.484353 75.315389 29.869087 Q 64.224905 60.339942 37.646384 50.666152 L 34.226183 60.063078 Z M 64.350529 30.016884 A 2 2 0 1 1 66.041002 33.642116 A 2 2 0 1 1 64.350529 30.016884 Z M 65.195766 31.8295 Z M 132 136 L 134.070552 128.272593 L 138.070552 135.200797 Q 159.661382 127.342377 170.637033 146.352762 Q 148.171359 159.323325 136.857651 139.727407 L 129.929448 143.727407 Z M 163.841375 140.804876 A 1.6 1.6 0 1 1 163.013154 143.895839 A 1.6 1.6 0 1 1 163.841375 140.804876 Z M 163.427265 142.350358 Z M 230 193 L 225.895758 181.723689 L 236.771452 186.795108 Q 256.539604 158.56326 286.381557 172.478791 Q 269.936767 207.744757 239.175661 193.400618 L 234.104242 204.276311 Z M 273.258337 171.508693 A 2.4 2.4 0 1 1 274.900034 176.019218 A 2.4 2.4 0 1 1 273.258337 171.508693 Z M 274.079185 173.763955 Z M 210 253 L 206.376533 239.477038 L 218.500889 246.477038 Q 244.346635 215.675278 277.614808 234.882667 Q 254.916323 274.197596 220.623467 254.398606 L 213.623467 266.522962 Z M 262.461286 232.420801 A 2.8 2.8 0 1 1 263.910673 237.829985 A 2.8 2.8 0 1 1 262.461286 232.420801 Z M 263.18598 235.125393 Z"/>
</svg>
