<svg viewbox="0 0 500 500" width="500" height="500" xmlns="http://www.w3.org/2000/svg">
<rect x="0" y="0" width="100%" height="100%" fill="white"/>
<path fill="lightblue" stroke="black" stroke-width="1.5" stroke-linejoin="round" d="M10 490Q18 492.91 26 490T42 490Q44.91 482 42 474T42 458Q34 455.09 26 458T10 458Q7.09 450 10 442T10 426Q7.09 418 10 410T10 394Q18 391.09 26 394T42 394Q44.91 402 42 410T42 426Q50 423.09 58 426T74 426Q76.91 418 74 410T74 394Q82 396.91 90 394T106 394Q103.09 402 106 410T106 426Q108.91 434 106 442T106 458Q98 460.91 90 458T74 458Q76.91 466 74 474T74 490Q82 487.09 90 490T106 490Q114 492.91 122 490T138 490Q135.09 482 138 474T138 458Q146 455.09 154 458T170 458Q172.91 466 170 474T170 490Q178 492.91 186 490T202 490Q210 492.91 218 490T234 490Q236.91 482 234 474T234 458Q226 455.09 218 458T202 458Q204.91 450 202 442T202 426Q210 423.09 218 426T234 426Q231.09 418 234 410T234 394Q226 396.91 218 394T202 394Q194 391.09 186 394T170 394Q167.09 402 170 410T170 426Q162 423.09 154 426T138 426Q140.91 418 138 410T138 394Q140.91 386 138 378T138 362Q140.91 354 138 346T138 330Q146 332.91 154 330T170 330Q167.09 338 170 346T170 362Q178 359.09 186 362T202 362Q210 359.09 218 362T234 362Q231.09 354 234 346T234 330Q226 332.91 218 330T202 330Q199.09 322 202 314T202 298Q210 300.91 218 298T234 298Q236.91 290 234 282T234 266Q226 263.09 218 266T202 266Q194 268.91 186 266T170 266Q172.91 274 170 282T170 298Q162 300.91 154 298T138 298Q135.09 290 138 282T138 266Q130 263.09 122 266T106 266Q98 268.91 90 266T74 266Q76.91 274 74 282T74 298Q82 295.09 90 298T106 298Q103.09 306 106 314T106 330Q103.09 338 106 346T106 362Q98 359.09 90 362T74 362Q76.91 354 74 346T74 330Q66 327.09 58 330T42 330Q44.91 338 42 346T42 362Q34 364.91 26 362T10 362Q7.09 354 10 346T10 330Q12.91 322 10 314T10 298Q18 300.91 26 298T42 298Q44.91 290 42 282T42 266Q34 263.09 26 266T10 266Q7.09 258 10 250T10 234Q7.09 226 10 218T10 202Q18 199.09 26 202T42 202Q44.91 210 42 218T42 234Q50 236.91 58 234T74 234Q82 236.91 90 234T106 234Q108.91 226 106 218T106 202Q98 199.09 90 202T74 202Q76.91 194 74 186T74 170Q82 167.09 90 170T106 170Q103.09 162 106 154T106 138Q98 140.91 90 138T74 138Q66 135.09 58 138T42 138Q39.09 146 42 154T42 170Q34 167.09 26 170T10 170Q12.91 162 10 154T10 138Q7.09 130 10 122T10 106Q18 108.91 26 106T42 106Q44.91 98 42 90T42 74Q34 71.09 26 74T10 74Q7.09 66 10 58T10 42Q7.09 34 10 26T10 10Q18 7.09 26 10T42 10Q44.91 18 42 26T42 42Q50 39.09 58 42T74 42Q76.91 34 74 26T74 10Q82 12.91 90 10T106 10Q103.09 18 106 26T106 42Q108.91 50 106 58T106 74Q98 76.91 90 74T74 74Q76.91 82 74 90T74 106Q82 103.09 90 106T106 106Q114 103.09 122 106T138 106Q146 103.09 154 106T170 106Q167.09 98 170 90T170 74Q162 76.91 154 74T138 74Q140.91 66 138 58T138 42Q140.91 34 138 26T138 10Q146 12.91 154 10T170 10Q167.09 18 170 26T170 42Q178 44.91 186 42T202 42Q199.09 34 202 26T202 10Q210 7.09 218 10T234 10Q236.91 18 234 26T234 42Q231.09 50 234 58T234 74Q226 71.09 218 74T202 74Q199.09 82 202 90T202 106Q210 108.91 218 106T234 106Q236.91 114 234 122T234 138Q231.09 146 234 154T234 170Q226 167.09 218 170T202 170Q204.91 162 202 154T202 138Q194 140.91 186 138T170 138Q162 140.91 154 138T138 138Q140.91 146 138 154T138 170Q146 167.09 154 170T170 170Q172.91 178 170 186T170 202Q162 199.09 154 202T138 202Q135.09 210 138 218T138 234Q146 236.91 154 234T170 234Q178 231.09 186 234T202 234Q199.09 226 202 218T202 202Q210 199.09 218 202T234 202Q236.91 210 234 218T234 234Q242 231.09 250 234T266 234Q268.91 226 266 218T266 202Q274 204.91 282 202T298 202Q295.09 210 298 218T298 234Q306 231.09 314 234T330 234Q338 231.09 346 234T362 234Q359.09 226 362 218T362 202Q354 204.91 346 202T330 202Q327.09 194 330 186T330 170Q338 172.91 346 170T362 170Q364.91 162 362 154T362 138Q354 135.09 346 138T330 138Q322 140.91 314 138T298 138Q300.91 146 298 154T298 170Q290 172.91 282 170T266 170Q263.09 162 266 154T266 138Q268.91 130 266 122T266 106Q274 103.09 282 106T298 106Q295.09 98 298 90T298 74Q290 76.91 282 74T266 74Q268.91 66 266 58T266 42Q268.91 34 266 26T266 10Q274 12.91 282 10T298 10Q295.09 18 298 26T298 42Q306 44.91 314 42T330 42Q327.09 34 330 26T330 10Q338 7.09 346 10T362 10Q364.91 18 362 26T362 42Q359.09 50 362 58T362 74Q354 71.09 346 74T330 74Q327.09 82 330 90T330 106Q338 108.91 346 106T362 106Q370 108.91 378 106T394 106Q402 108.91 410 106T426 106Q428.91 98 426 90T426 74Q418 71.09 410 74T394 74Q391.09 66 394 58T394 42Q391.09 34 394 26T394 10Q402 7.09 410 10T426 10Q428.91 18 426 26T426 42Q434 39.09 442 42T458 42Q460.91 34 458 26T458 10Q466 12.91 474 10T490 10Q487.09 18 490 26T490 42Q492.91 50 490 58T490 74Q482 76.91 474 74T458 74Q460.91 82 458 90T458 106Q466 103.09 474 106T490 106Q487.09 114 490 122T490 138Q492.91 146 490 154T490 170Q482 172.91 474 170T458 170Q455.09 162 458 154T458 138Q450 135.09 442 138T426 138Q418 135.09 410 138T394 138Q391.09 146 394 154T394 170Q402 172.91 410 170T426 170Q423.09 178 426 186T426 202Q418 204.91 410 202T394 202Q396.91 210 394 218T394 234Q402 231.09 410 234T426 234Q434 236.91 442 234T458 234Q460.91 226 458 218T458 202Q466 204.91 474 202T490 202Q487.09 210 490 218T490 234Q492.91 242 490 250T490 266Q482 268.91 474 266T458 266Q460.91 274 458 282T458 298Q466 295.09 474 298T490 298Q487.09 306 490 314T490 330Q487.09 338 490 346T490 362Q482 359.09 474 362T458 362Q460.91 354 458 346T458 330Q450 327.09 442 330T426 330Q428.91 338 426 346T426 362Q418 364.91 410 362T394 362Q391.09 354 394 346T394 330Q396.91 322 394 314T394 298Q402 300.91 410 298T426 298Q428.91 290 426 282T426 266Q418 263.09 410 266T394 266Q386 268.91 378 266T362 266Q359.09 274 362 282T362 298Q354 295.09 346 298T330 298Q332.91 290 330 282T330 266Q322 268.91 314 266T298 266Q290 268.91 282 266T266 266Q268.91 274 266 282T266 298Q274 295.09 282 298T298 298Q300.91 306 298 314T298 330Q290 327.09 282 330T266 330Q263.09 338 266 346T266 362Q274 364.91 282 362T298 362Q306 359.09 314 362T330 362Q327.09 354 330 346T330 330Q338 327.09 346 330T362 330Q364.91 338 362 346T362 362Q364.91 370 362 378T362 394Q364.91 402 362 410T362 426Q354 428.91 346 426T330 426Q327.09 418 330 410T330 394Q322 391.09 314 394T298 394Q290 391.09 282 394T266 394Q263.09 402 266 410T266 426Q274 428.91 282 426T298 426Q295.09 434 298 442T298 458Q290 460.91 282 458T266 458Q268.91 466 266 474T266 490Q274 487.09 282 490T298 490Q306 492.91 314 490T330 490Q332.91 482 330 474T330 458Q338 460.91 346 458T362 458Q359.09 466 362 474T362 490Q370 487.09 378 490T394 490Q402 492.91 410 490T426 490Q428.91 482 426 474T426 458Q418 455.09 410 458T394 458Q391.09 450 394 442T394 426Q391.09 418 394 410T394 394Q402 391.09 410 394T426 394Q428.91 402 426 410T426 426Q434 423.09 442 426T458 426Q460.91 418 458 410T458 394Q466 396.91 474 394T490 394Q487.09 402 490 410T490 426Q492.91 434 490 442T490 458Q482 460.91 474 458T458 458Q460.91 466 458 474T458 490Q466 487.09 474 490T490 490"/>
</svg>
